<?xml version="1.0" encoding="UTF-8" standalone="no"?>
<!-- Generator: Adobe Illustrator 28.1.0, SVG Export Plug-In . SVG Version: 6.00 Build 0)  -->

<svg
   version="1.2"
   id="Layer_1"
   x="0px"
   y="0px"
   viewBox="0 0 553.30055 139.27576"
   overflow="visible"
   xml:space="preserve"
   sodipodi:docname="logo.svg"
   inkscape:version="1.1.2 (0a00cf5339, 2022-02-04)"
   inkscape:export-filename="/home/j/code/wwwhisper/assets/logo/logo40.png"
   inkscape:export-xdpi="55.142403"
   inkscape:export-ydpi="55.142403"
   width="553.30054"
   height="139.27576"
   xmlns:inkscape="http://www.inkscape.org/namespaces/inkscape"
   xmlns:sodipodi="http://sodipodi.sourceforge.net/DTD/sodipodi-0.dtd"
   xmlns="http://www.w3.org/2000/svg"
   xmlns:svg="http://www.w3.org/2000/svg"><defs
   id="defs33" /><sodipodi:namedview
   id="namedview31"
   pagecolor="#ffffff"
   bordercolor="#666666"
   borderopacity="1.0"
   inkscape:pageshadow="2"
   inkscape:pageopacity="0.0"
   inkscape:pagecheckerboard="0"
   showgrid="false"
   inkscape:snap-text-baseline="false"
   inkscape:zoom="2.0073913"
   inkscape:cx="253.31384"
   inkscape:cy="67.998701"
   inkscape:window-width="2556"
   inkscape:window-height="1436"
   inkscape:window-x="0"
   inkscape:window-y="0"
   inkscape:window-maximized="1"
   inkscape:current-layer="Layer_1"
   fit-margin-top="0"
   fit-margin-left="0"
   fit-margin-right="0"
   fit-margin-bottom="0" />
<g
   id="g28"
   transform="translate(-5.6,-15.4)">
	<g
   id="g12">
		<g
   id="g6">
			<path
   fill="#98c1d9"
   d="m 323.2,60.4 v 0 H 134.9 c -9.2,-27 -34.2,-45 -62.9,-45 -36.6,0 -66.4,29.8 -66.4,66.4 0,36.6 29.8,66.4 66.4,66.4 28.8,0 53.8,-18.1 62.9,-45.3 l 17.7,-2.5 -19.7,-2.8 v 0 0 h -2 l -0.6,1.9 c -7.9,25.7 -31.3,43 -58.2,43 C 38.5,142.5 11.2,115.2 11.2,81.6 11.2,48 38.3,21 71.9,21 c 26.9,0 50.4,17.3 58.2,43 l 0.6,1.9 h 192.4 v 0 c 5,-0.7 10.7,3.5 11.1,9.5 l 1.1,19.2 c 0,0 1.1,-19.2 1.1,-19.2 0.8,-7.5 -5.5,-14.6 -13.2,-15 z"
   id="path2" />
			
		</g>
		<g
   id="g10">
			<path
   fill="#98c1d9"
   d="m 38.9,97.8 c -8.8,0 -16,-7.2 -16,-16 0,-8.8 7.2,-16 16,-16 8.8,0 16,7.2 16,16 0,8.8 -7.3,16 -16,16 z m 0,-28.2 c -6.8,0 -12.3,5.5 -12.3,12.3 0,6.8 5.5,12.3 12.3,12.3 6.8,0 12.3,-5.5 12.3,-12.3 0,-6.8 -5.6,-12.3 -12.3,-12.3 z"
   id="path8" />
		</g>
	</g>
	
	
	
	
	
	
	
</g>
<text
   xml:space="preserve"
   style="font-style:normal;font-weight:normal;font-size:40px;line-height:1.25;font-family:sans-serif;fill:#000000;fill-opacity:1;stroke:none"
   x="166.08336"
   y="14.101357"
   id="text12135"><tspan
     sodipodi:role="line"
     id="tspan12133"
     x="166.08336"
     y="14.101357" /></text><text
   xml:space="preserve"
   style="font-style:normal;font-weight:normal;font-size:40px;line-height:1.25;font-family:sans-serif;fill:#000000;fill-opacity:1;stroke:none"
   x="155.55907"
   y="8.4224834"
   id="text20787"><tspan
     sodipodi:role="line"
     id="tspan20785"
     x="155.55907"
     y="8.4224834" /></text><g
   aria-label="wwwhisper"
   id="text24553"
   style="font-size:82.6667px;line-height:1.25;font-family:Andika;-inkscape-font-specification:Andika;fill:#98c1d9"
   transform="translate(-5.6,-15.4)"><path
     d="M 171.27738,138.30774 156.31471,99.454389 h 6.03466 l 11.82134,32.240011 -2.14933,0.0827 11.73867,-32.322681 h 3.38934 l 11.73867,32.322681 -2.14934,-0.0827 11.73867,-32.240011 h 6.11734 l -15.04534,38.853351 h -3.38933 l -11.98668,-31.82668 h 2.48001 l -11.90401,31.82668 z"
     style="font-weight:300;font-family:Outfit;-inkscape-font-specification:'Outfit Light'"
     id="path462180" /><path
     d="M 231.12783,138.30774 216.16516,99.454389 h 6.03467 l 11.82134,32.240011 -2.14934,0.0827 11.73867,-32.322681 h 3.38934 l 11.73867,32.322681 -2.14933,-0.0827 11.73867,-32.240011 h 6.11733 l -15.04534,38.853351 h -3.38933 l -11.98667,-31.82668 h 2.48 l -11.90401,31.82668 z"
     style="font-weight:300;font-family:Outfit;-inkscape-font-specification:'Outfit Light'"
     id="path462182" /><path
     d="M 290.97828,138.30774 276.01561,99.454389 h 6.03467 l 11.82134,32.240011 -2.14934,0.0827 11.73868,-32.322681 h 3.38933 l 11.73867,32.322681 -2.14933,-0.0827 11.73867,-32.240011 h 6.11734 L 319.2503,138.30774 h -3.38934 l -11.98667,-31.82668 h 2.48 l -11.904,31.82668 z"
     style="font-weight:300;font-family:Outfit;-inkscape-font-specification:'Outfit Light'"
     id="path462184" /><path
     d="m 370.09019,138.30774 v -22.81601 q 0,-5.12534 -3.05867,-8.26667 -2.976,-3.224 -7.93601,-3.224 -3.38933,0 -5.952,1.488 -2.56267,1.488 -4.05067,4.05067 -1.488,2.56266 -1.488,5.86933 l -2.64533,-1.488 q 0,-4.38133 2.06667,-7.85333 2.06666,-3.47201 5.53866,-5.45601 3.55467,-1.983998 8.10134,-1.983998 4.464,0 7.936,2.066668 3.47201,1.984 5.37334,5.53867 1.984,3.55467 1.984,8.26667 v 23.80801 z m -28.27202,0 V 79.779714 h 5.78667 v 58.528026 z"
     style="font-weight:300;font-family:Outfit;-inkscape-font-specification:'Outfit Light'"
     id="path462186" /><path
     d="M 386.78875,138.30774 V 99.454389 h 5.86934 v 38.853351 z m 2.89334,-47.285354 q -1.65334,0 -2.81067,-1.157334 -1.15733,-1.240001 -1.15733,-2.893335 0,-1.736001 1.15733,-2.893334 1.15733,-1.157334 2.81067,-1.157334 1.81867,0 2.89333,1.157334 1.15734,1.157333 1.15734,2.893334 0,1.653334 -1.15734,2.893335 -1.07466,1.157334 -2.89333,1.157334 z"
     style="font-weight:300;font-family:Outfit;-inkscape-font-specification:'Outfit Light'"
     id="path462188" /><path
     d="m 416.30072,139.13441 q -3.14134,0 -6.03467,-0.82667 -2.89334,-0.90933 -5.29067,-2.48 -2.31467,-1.57067 -4.05067,-3.72 l 3.72,-3.80267 q 2.31467,2.81067 5.208,4.216 2.976,1.32267 6.61334,1.32267 3.88533,0 6.03467,-1.488 2.232,-1.488 2.232,-4.13334 0,-2.48 -1.57067,-3.88533 -1.57067,-1.40534 -4.05067,-2.232 -2.39733,-0.82667 -5.12533,-1.57067 -2.728,-0.82667 -5.208,-1.984 -2.48001,-1.24 -4.05067,-3.38934 -1.488,-2.14933 -1.488,-5.62133 0,-3.30667 1.57066,-5.70401 1.65334,-2.48 4.62934,-3.80266 3.05867,-1.405338 7.192,-1.405338 4.38134,0 7.93601,1.570668 3.55466,1.57067 5.704,4.62933 l -3.72,3.72001 q -1.736,-2.232 -4.38134,-3.38934 -2.56267,-1.24 -5.78667,-1.24 -3.72,0 -5.704,1.488 -1.90133,1.40534 -1.90133,3.72 0,2.232 1.57066,3.55467 1.57067,1.24 3.968,2.06667 2.48001,0.744 5.20801,1.57067 2.728,0.744 5.208,2.06666 2.48,1.24 3.968,3.47201 1.57067,2.14933 1.57067,5.86933 0,5.208 -3.80267,8.34934 -3.72,3.05867 -10.168,3.05867 z"
     style="font-weight:300;font-family:Outfit;-inkscape-font-specification:'Outfit Light'"
     id="path462190" /><path
     d="m 459.53538,139.13441 q -4.464,0 -8.01867,-1.81867 -3.55467,-1.81867 -5.86934,-4.96 -2.232,-3.224 -2.728,-7.44001 v -12.152 q 0.496,-4.29867 2.81067,-7.44 2.31467,-3.22401 5.86933,-4.96001 3.63734,-1.735998 7.93601,-1.735998 5.37333,0 9.672,2.727998 4.29867,2.64534 6.77867,7.27467 2.56267,4.54667 2.56267,10.33334 0,5.704 -2.48,10.25067 -2.48,4.54667 -6.86134,7.27467 -4.29867,2.64534 -9.672,2.64534 z m -20.08801,15.54134 V 99.454389 h 5.78667 v 9.920001 l -1.15734,9.42401 1.15734,9.50667 v 26.37068 z m 19.09601,-21.08001 q 4.13333,0 7.27467,-1.81867 3.14133,-1.90133 4.87733,-5.208 1.81867,-3.38934 1.81867,-7.68801 0,-4.38133 -1.81867,-7.688 -1.736,-3.30667 -4.87733,-5.208 -3.14134,-1.90134 -7.19201,-1.90134 -4.05066,0 -7.192,1.90134 -3.05867,1.90133 -4.79467,5.208 -1.736,3.30667 -1.736,7.688 0,4.29867 1.736,7.68801 1.736,3.30667 4.79467,5.208 3.05867,1.81867 7.10934,1.81867 z"
     style="font-weight:300;font-family:Outfit;-inkscape-font-specification:'Outfit Light'"
     id="path462192" /><path
     d="m 505.746,139.13441 q -5.86934,0 -10.49867,-2.64534 -4.62934,-2.64533 -7.35734,-7.27467 -2.64533,-4.62933 -2.64533,-10.416 0,-5.704 2.64533,-10.25067 2.64534,-4.62934 7.192,-7.27467 4.54667,-2.645338 10.16801,-2.645338 5.29067,0 9.34134,2.397338 4.13333,2.39733 6.448,6.696 2.39733,4.216 2.39733,9.75467 0,0.66133 -0.0827,1.57067 -0.0827,0.82666 -0.33067,1.984 h -33.64535 v -4.96 H 519.882 l -2.06666,1.81866 q 0.0827,-4.29866 -1.488,-7.35733 -1.488,-3.14134 -4.38134,-4.79467 -2.81067,-1.736 -6.86134,-1.736 -4.216,0 -7.35733,1.81867 -3.14134,1.81866 -4.96,5.12533 -1.736,3.224 -1.736,7.688 0,4.46401 1.81866,7.85334 1.90134,3.38934 5.20801,5.29067 3.38933,1.90133 7.77067,1.90133 3.55466,0 6.53066,-1.24 2.97601,-1.32266 5.04267,-3.88533 l 3.72001,3.80267 q -2.72801,3.224 -6.77867,5.04267 -3.96801,1.736 -8.59734,1.736 z"
     style="font-weight:300;font-family:Outfit;-inkscape-font-specification:'Outfit Light'"
     id="path462194" /><path
     d="M 532.28184,138.30774 V 99.454389 h 5.78667 v 38.853351 z m 5.78667,-22.65068 -2.39733,-1.07466 q 0,-7.35734 3.55466,-11.65601 3.63734,-4.298668 9.92001,-4.298668 2.89333,0 5.29067,1.074667 2.39733,0.992001 4.464,3.224001 l -3.80267,4.05067 q -1.40533,-1.57067 -3.14133,-2.232 -1.65334,-0.66134 -3.80267,-0.66134 -4.464,0 -7.27467,2.97601 -2.81067,2.89333 -2.81067,8.59733 z"
     style="font-weight:300;font-family:Outfit;-inkscape-font-specification:'Outfit Light'"
     id="path462196" /></g></svg>
